<svg id="Layer_1" enable-background="new 0 0 512.004 512.004" height="512" viewBox="0 0 512.004 512.004" width="512" xmlns="http://www.w3.org/2000/svg"><g><path d="m333.113 433.684v34.874c0 23.956 19.49 43.446 43.446 43.446s43.445-19.49 43.445-43.446v-34.874z" fill="#57555c"/><path d="m333.113 433.684v34.874c0 23.956 19.49 43.446 43.446 43.446s43.445-19.49 43.445-43.446v-34.874z" fill="#3c3a41"/><path d="m92 468.558c0 23.956 19.49 43.446 43.446 43.446s43.445-19.49 43.445-43.446v-34.874h-86.891z" fill="#57555c"/><path d="m113.505 327.833 23.778-99.123h237.438l23.778 99.123z" fill="#cae8f9"/><path d="m374.721 228.711h-118.707v99.122h142.485z" fill="#97d9f6"/><path d="m383.912 331.332-21.018-87.621h-213.784l-21.019 87.621-29.173-6.998 26.537-110.623h261.093l26.537 110.623z" fill="#ff3b62"/><path d="m386.548 213.711h-130.534v30h106.88l21.018 87.621 29.173-6.998z" fill="#d01273"/><path d="m386.331 312.833h-260.659c-35.191 0-63.822 28.63-63.822 63.822v87.03h388.303v-87.03c.001-35.192-28.63-63.822-63.822-63.822z" fill="#ff7a53"/><path d="m450.154 376.655c0-35.191-28.631-63.822-63.822-63.822h-130.318v150.852h194.14z" fill="#ff3b62"/><g><path d="m204.734 379.1h102.536v30h-102.536z" fill="#f4f1f1"/></g><g><path d="m344.423 366.809h30.002v30h-30.002z" fill="#fff151"/></g><g><path d="m137.579 366.809h30.002v30h-30.002z" fill="#fff151"/></g><path d="m269.819 81.959h-27.634c-34.752 0-63.025 28.273-63.025 63.025v40.608h153.685v-40.608c-.001-34.752-28.274-63.025-63.026-63.025z" fill="#60dd4e"/><path d="m332.844 144.985c0-34.752-28.273-63.025-63.025-63.025h-13.806v103.634h76.831z" fill="#00b9a0"/><path d="m406.318 92.192h-10.447c-34.752 0-63.025 28.273-63.025 63.025v30.376h136.497v-30.376c0-34.752-28.273-63.025-63.025-63.025z" fill="#bee75e"/><path d="m406.318 92.192h-10.447c-34.752 0-63.025 28.273-63.025 63.025v30.376h136.497v-30.376c0-34.752-28.273-63.025-63.025-63.025z" fill="#60dd4e"/><path d="m116.133 92.192h-10.447c-34.752 0-63.025 28.273-63.025 63.025v30.376h136.497v-30.376c0-34.752-28.273-63.025-63.025-63.025z" fill="#bee75e"/><g fill="#ffd7b3"><path d="m401.105 122.055c-25.116 0-45.477-20.361-45.477-45.477v-9.354c0-25.116 20.361-45.477 45.477-45.477 25.116 0 45.477 20.361 45.477 45.477v9.354c0 25.117-20.361 45.477-45.477 45.477z"/><path d="m110.909 122.055c-25.116 0-45.477-20.361-45.477-45.477v-9.354c0-25.116 20.361-45.477 45.477-45.477 25.116 0 45.477 20.361 45.477 45.477v9.354c0 25.117-20.361 45.477-45.477 45.477z"/><path d="m256.014 111.948c-28.031 0-50.754-22.723-50.754-50.754v-10.44c-.001-28.031 22.723-50.754 50.753-50.754 28.031 0 50.754 22.723 50.754 50.754v10.439c.001 28.031-22.723 50.755-50.753 50.755z"/></g><g><path d="m344.423 366.809h30.002v30h-30.002z" fill="#ffdb2d"/></g><path d="m401.105 122.055c-25.116 0-45.477-20.361-45.477-45.477v-9.354c0-25.116 20.361-45.477 45.477-45.477 25.116 0 45.477 20.361 45.477 45.477v9.354c0 25.117-20.361 45.477-45.477 45.477z" fill="#fc9"/><path d="m306.768 61.193v-10.439c0-28.031-22.724-50.754-50.754-50.754v111.948c28.03 0 50.754-22.724 50.754-50.755z" fill="#fc9"/><path d="m256.014 379.1h51.256v30h-51.256z" fill="#eceae7"/></g></svg>